<svg viewBox="0 0 296 33.2085" xmlns="http://www.w3.org/2000/svg" xmlns:xlink="http://www.w3.org/1999/xlink" width="295.999939" height="33.208496" fill="none" customFrame="#000000">
	<g id="logo">
		<path id="Vector" d="M88.4729 0L61.2502 0C59.334 0 57.4434 0.427579 55.6038 1.28274C54.9268 1.5937 54.2881 1.94354 53.6749 2.35816C53.1767 2.65617 52.4741 3.21332 51.5671 4.04256C48.7695 6.93196 47.3643 10.3396 47.3643 14.2785L47.3643 18.8783C47.3643 22.0398 48.284 24.9032 50.1108 27.4428C50.4557 27.9092 50.9411 28.4664 51.5671 29.1142C52.193 29.6973 52.7296 30.1638 53.1894 30.5136C55.706 32.2757 58.3759 33.1568 61.2119 33.1568L88.4346 33.1568L88.4346 13.1642L68.6722 13.1642C68.4295 13.1642 68.1484 13.1902 67.8546 13.2549C67.037 13.54 66.4622 14.0065 66.1173 14.6413C65.7724 15.056 65.6063 15.7038 65.6063 16.5978L65.6063 20.4979L79.5305 20.4979L79.5305 24.5923L61.033 24.5923C60.6881 24.5923 60.1771 24.4886 59.5256 24.2813C59.1935 24.1647 58.8358 23.9833 58.4653 23.763C58.1587 23.5557 57.7883 23.2577 57.3667 22.882C56.3575 21.7547 55.8465 20.4849 55.8465 19.0726L55.8465 14.0971C55.8465 12.931 56.2042 11.8426 56.9452 10.832C58.1076 9.34195 59.5895 8.59045 61.3524 8.59045L88.4729 8.59045L88.4729 0Z" fill="rgb(42.8187,123.318,197.625)" fill-rule="evenodd" />
		<path id="Vector" d="M41.1087 0L13.8859 0C11.9697 0 10.0791 0.427579 8.23958 1.28274C7.56253 1.5937 6.9238 1.94354 6.31062 2.35816C5.81241 2.65617 5.10981 3.21332 4.20282 4.04256C1.4052 6.93196 0 10.3396 0 14.2785L0 18.8783C0 22.0398 0.919767 24.9032 2.74653 27.4428C3.09144 27.9092 3.57687 28.4664 4.20282 29.1142C4.82877 29.6973 5.3653 30.1638 5.82519 30.5136C8.34177 32.2757 11.0117 33.1568 13.8476 33.1568L41.0703 33.1568L41.0703 13.1642L21.3079 13.1642C21.0652 13.1642 20.7842 13.1902 20.4904 13.2549C19.6728 13.54 19.0979 14.0065 18.753 14.6413C18.4081 15.056 18.242 15.7038 18.242 16.5978L18.242 20.4979L32.1663 20.4979L32.1663 24.5923L13.6688 24.5923C13.3238 24.5923 12.8129 24.4886 12.1614 24.2813C11.8292 24.1647 11.4715 23.9833 11.1011 23.763C10.7945 23.5557 10.424 23.2577 10.0025 22.882C8.99327 21.7547 8.48229 20.4849 8.48229 19.0726L8.48229 14.0971C8.48229 12.931 8.83998 11.8426 9.5809 10.832C10.7434 9.34195 12.2252 8.59045 13.9881 8.59045L41.1087 8.59045L41.1087 0Z" fill="rgb(42.8187,123.318,197.625)" fill-rule="evenodd" />
		<path id="Vector" d="M96.5392 33.2086L292.866 33.2086C294.593 33.2086 296 31.7816 296 30.0304L296 3.22994C296 1.46572 294.593 0.0517578 292.867 0.0517578L96.5392 0.0517578C96.5389 1.34177 96.5392 23.6192 96.5392 33.2086Z" fill="rgb(233.75,22.401,73.1248)" fill-rule="evenodd" />
		<path id="PROMARKET" d="M162.561 20.6718C162.561 22.4627 162.146 23.7675 161.316 24.5862C160.503 25.3878 159.189 25.7886 157.374 25.7886L150.89 25.7886C149.075 25.7886 147.752 25.3878 146.923 24.5862C146.11 23.7675 145.704 22.4627 145.704 20.6718L145.704 12.485C145.704 10.6941 146.11 9.39782 146.923 8.59619C147.752 7.77751 149.075 7.36816 150.89 7.36816L157.374 7.36816C159.189 7.36816 160.503 7.77751 161.316 8.59619C162.146 9.39782 162.561 10.6941 162.561 12.485L162.561 20.6718ZM104.996 7.624L115.888 7.624Q118.611 7.624 119.83 8.85203C120.66 9.65366 121.075 10.9499 121.075 12.7408L121.075 15.2992C121.075 17.0901 120.66 18.3948 119.83 19.2135Q118.611 20.416 115.888 20.416L109.664 20.416L109.664 25.5328L104.996 25.5328L104.996 7.624ZM125.483 7.624L136.375 7.624Q139.098 7.624 140.317 8.85203C141.146 9.65366 141.561 10.9499 141.561 12.7408L141.561 15.0433C141.561 16.459 141.319 17.5591 140.835 18.3437C140.368 19.1283 139.616 19.6485 138.579 19.9043L141.821 25.5328L136.764 25.5328L133.781 20.1601L130.151 20.1601L130.151 25.5328L125.483 25.5328L125.483 7.624ZM182.801 15.555L179.17 21.951L175.539 21.951L171.909 15.555L171.909 25.5328L167.241 25.5328L167.241 7.624L172.168 7.624L177.355 17.0901L182.542 7.624L187.469 7.624L187.469 25.5328L182.801 25.5328L182.801 15.555ZM195.907 25.5328L190.85 25.5328L197.723 7.624L202.91 7.624L209.782 25.5328L204.725 25.5328L203.558 22.3348L197.074 22.3348L195.907 25.5328ZM213.152 7.624L224.044 7.624C225.86 7.624 227.174 8.03335 227.986 8.85203C228.816 9.65366 229.231 10.9499 229.231 12.7408L229.231 15.0433C229.231 16.459 228.989 17.5591 228.505 18.3437C228.038 19.1283 227.286 19.6485 226.249 19.9043L229.49 25.5328L224.433 25.5328L221.451 20.1601L217.82 20.1601L217.82 25.5328L213.152 25.5328L213.152 7.624ZM238.56 25.5328L233.892 25.5328L233.892 7.624L238.56 7.624L238.56 14.6596L240.894 14.6596L244.94 7.624L249.867 7.624L244.784 16.4505L249.841 25.5328L244.914 25.5328L240.894 18.2413L238.56 18.2413L238.56 25.5328ZM267.885 25.5328L253.492 25.5328L253.492 7.624L267.885 7.624L267.885 11.2058L258.16 11.2058L258.16 14.6596L265.811 14.6596L265.811 18.2413L258.16 18.2413L258.16 21.951L267.885 21.951L267.885 25.5328ZM280.846 25.5328L276.178 25.5328L276.178 11.2058L270.732 11.2058L270.732 7.624L286.292 7.624L286.292 11.2058L280.846 11.2058L280.846 25.5328ZM157.892 12.485C157.892 11.4616 157.374 10.9499 156.336 10.9499L151.928 10.9499C150.89 10.9499 150.372 11.4616 150.372 12.485L150.372 20.6718C150.372 21.6952 150.89 22.2069 151.928 22.2069L156.336 22.2069C157.374 22.2069 157.892 21.6952 157.892 20.6718L157.892 12.485ZM116.407 12.7408Q116.407 11.9837 116.028 11.6Q115.639 11.2058 114.851 11.2058L109.664 11.2058L109.664 16.8342L114.851 16.8342Q115.639 16.8342 116.028 16.44Q116.407 16.0563 116.407 15.2992L116.407 12.7408ZM136.893 12.7408C136.893 11.7174 136.375 11.2058 135.337 11.2058L130.151 11.2058L130.151 16.5784L135.337 16.5784C136.375 16.5784 136.893 16.0667 136.893 15.0433L136.893 12.7408ZM224.563 12.7408C224.563 11.7174 224.044 11.2058 223.007 11.2058L217.82 11.2058L217.82 16.5784L223.007 16.5784C224.044 16.5784 224.563 16.0667 224.563 15.0433L224.563 12.7408ZM198.241 19.0089L202.391 19.0089L200.316 12.9966L198.241 19.0089Z" fill="rgb(251,250,249)" fill-rule="evenodd" />
	</g>
</svg>
