<svg viewBox="0 0 70 50" xmlns="http://www.w3.org/2000/svg" xmlns:xlink="http://www.w3.org/1999/xlink" width="70.000000" height="50.000000" fill="none">
	<rect id="Frame" width="70.000000" height="50.000000" x="0.000000" y="0.000000" fill="rgb(255,255,255)" fill-opacity="0" />
	<path id="Vector" d="M68 22.0842L53.5996 22.0842C51.9428 22.0842 50.5996 20.7411 50.5996 19.0842C50.5997 17.2358 50.5997 15.3875 50.5998 13.5391C50.5998 11.8822 51.9429 10.5391 53.5998 10.5391L64.5002 10.5391" fill-rule="nonzero" stroke="rgb(59,185,184)" stroke-width="2" />
	<path id="Vector" d="M0 11L15 11" stroke="rgb(59,185,184)" stroke-width="2" />
	<path id="Vector" d="M15 22L0 22" stroke="rgb(59,185,184)" stroke-width="2" />
	<path id="Vector" d="M15 33L0 33" stroke="rgb(59,185,184)" stroke-width="2" />
	<path id="Vector" d="M17 43L12 43C10.3431 43 9 41.6569 9 40L9 4C9 2.34315 10.3431 1 12 1L56.9936 1C57.8743 1 58.7157 1.38301 59.2623 2.07351C68.0865 13.2192 68.9205 26.4309 68.9934 40C68.9934 41.6568 67.6569 43 66 43L64.2735 43" fill-rule="nonzero" stroke="rgb(59,185,184)" stroke-width="2" />
	<path id="Vector" d="M53.5572 43L29 43" stroke="rgb(59,185,184)" stroke-width="2" />
	<path id="Vector" d="M59 49C55.6863 49 53 46.3137 53 43C53 39.6863 55.6863 37 59 37C62.3137 37 65 39.6863 65 43C65 46.3137 62.3137 49 59 49Z" stroke="rgb(59,185,184)" stroke-width="2" />
	<path id="Vector" d="M23 49C19.6863 49 17 46.3137 17 43C17 39.6863 19.6863 37 23 37C26.3137 37 29 39.6863 29 43C29 46.3137 26.3137 49 23 49Z" stroke="rgb(59,185,184)" stroke-width="2" />
</svg>
