<svg viewBox="0 0 65 59" xmlns="http://www.w3.org/2000/svg" xmlns:xlink="http://www.w3.org/1999/xlink" width="65.000000" height="59.000000" fill="none">
	<rect id="Frame" width="65.000000" height="59.000000" x="0.000000" y="0.000000" fill="rgb(255,255,255)" fill-opacity="0" />
	<path id="Vector" d="M27.7148 58C24.4011 58 21.7148 55.3137 21.7148 52C21.7148 48.6863 24.4011 46 27.7148 46C31.0286 46 33.7148 48.6863 33.7148 52C33.7148 55.3137 31.0286 58 27.7148 58Z" stroke="rgb(59,185,184)" stroke-width="2" />
	<path id="Vector" d="M50.7148 58C47.4011 58 44.7148 55.3137 44.7148 52C44.7148 48.6863 47.4011 46 50.7148 46C54.0286 46 56.7148 48.6863 56.7148 52C56.7148 55.3137 54.0286 58 50.7148 58Z" stroke="rgb(59,185,184)" stroke-width="2" />
	<path id="Vector" d="M56.9952 52L61 52C62.6569 52 64 50.6569 64 49L64 32.1747C64 30.5178 62.6569 29.1747 61 29.1747L50.7518 29.1747L50.7518 13C50.7518 11.3431 49.4087 10 47.7518 10L38.4798 10C37.5242 10 36.6275 10.4575 36.1291 11.2729C33.8214 15.0488 27.5 27.1155 27.5 46" fill-rule="nonzero" stroke="rgb(59,185,184)" stroke-width="2" />
	<path id="Vector" d="M33.3926 52L45 52" stroke="rgb(59,185,184)" stroke-width="2" />
	<path id="Vector" d="M0 52L22 52" stroke="rgb(59,185,184)" stroke-width="2" />
	<path id="Vector" d="M0 0L51.9724 0" stroke="rgb(59,185,184)" stroke-width="2" transform="matrix(0,1,-1,0,18,0)" />
	<path id="Vector" d="M13 35L13 47L1 47L1 35L13 35Z" stroke="rgb(59,185,184)" stroke-width="2" />
	<path id="Vector" d="M13 18L13 30L1 30L1 18L13 18Z" stroke="rgb(59,185,184)" stroke-width="2" />
	<path id="Vector" d="M13 1L13 13L1 13L1 1L13 1Z" stroke="rgb(59,185,184)" stroke-width="2" />
</svg>
