<svg viewBox="0 0 60 58" xmlns="http://www.w3.org/2000/svg" xmlns:xlink="http://www.w3.org/1999/xlink" width="60.000000" height="58.000000" fill="none">
	<rect id="Frame" width="60.000000" height="58.000000" x="0.000000" y="0.000000" fill="rgb(255,255,255)" fill-opacity="0" />
	<path id="Vector" d="M7.5 49.6999C7.5 48.9499 8.14286 48.2 9 48.2C9.75 48.2 10.5 48.8428 10.5 49.6999C10.5 50.5571 9.85714 51.2 9 51.2C8.25 51.2 7.5 50.5571 7.5 49.6999Z" fill-rule="evenodd" stroke="rgb(59,185,184)" stroke-width="2" />
	<path id="Vector" d="M33.4 21.7999C36.2 17.4999 38.6 11.6999 37.9 6.59992C37.2 0.999924 32.8999 -7.58171e-05 30.7999 5.09992C28.1 11.5999 23.6 18.0999 18.2 22.9999C17.3 23.7999 16.7 25.0999 16.7 26.3999C16.7 32.3999 16.7 42.8999 16.7 52.3999C16.7 54.8999 18.7999 56.9999 21.2999 56.9999L49 56.9999C51.5 56.9999 53.5 54.8999 53.5 52.3999C53.5 50.7999 52.7 49.3999 51.4 48.5999L51.5 48.2999C53.7 47.8999 55.2999 45.8999 55.2999 43.6999C55.2999 41.9999 54.3999 40.5999 53.0999 39.7999L53.0999 39.4999C55.1999 39.0999 56.9 37.2999 56.9 35.0999C56.9 33.4999 56 31.9999 54.7999 31.1999L54.9 30.8999C57 30.4999 58.5 28.5999 58.5 26.3999C58.5 23.8999 56.4 21.7999 53.9 21.7999L33.4 21.7999Z" fill-rule="evenodd" stroke="rgb(59,185,184)" stroke-width="2" />
	<path id="Vector" d="M16.6 25.8999L4.80005 25.8999C3.14319 25.8999 1.80005 27.243 1.80005 28.8999L1.80005 53.9999C1.80005 55.6568 3.14319 56.9999 4.80005 56.9999L21.2001 56.9999" fill-rule="evenodd" stroke="rgb(59,185,184)" stroke-width="2" />
</svg>
