<svg viewBox="0 0 56 66" xmlns="http://www.w3.org/2000/svg" xmlns:xlink="http://www.w3.org/1999/xlink" width="56.000000" height="66.000000" fill="none">
	<rect id="Frame" width="56.000000" height="66.000000" x="0.000000" y="0.000000" fill="rgb(255,255,255)" fill-opacity="0" />
	<path id="Vector" d="M45.6291 21.1929L43.7745 19.3655C43.28 18.8782 42.4145 18.8782 41.92 19.3655L25.3527 35.6904C22.3855 32.7665 15.9564 26.4315 15.9564 26.4315C15.4618 25.9442 14.5964 25.9442 14.1018 26.4315L12.3709 28.2589C11.8764 28.7462 11.8764 29.599 12.3709 30.0863C12.3709 30.0863 21.52 39.1015 25.4764 43C30.1419 38.3747 45.6291 23.0203 45.6291 23.0203C46.1236 22.533 46.1236 21.6802 45.6291 21.1929Z" fill-rule="nonzero" stroke="rgb(59,185,184)" stroke-width="2" />
	<path id="Vector" d="M28 2C25.6967 3.42529 21.4739 5.56322 16.9953 5.56322C12.7755 5.56322 7.32522 5.56322 4 5.56322C2.34315 5.56322 1 6.90636 1 8.56322C1 12.4062 1 20.0286 1 31.931C1 40.9578 3.55924 47.0153 9.31754 52.1226C14.8199 56.9923 20.7062 61.2682 28 64C35.2938 61.1494 41.1801 56.9923 46.6825 52.1226C52.4408 47.0153 55 40.9578 55 31.931C55 20.078 55 12.4232 55 8.56322C55 6.90636 53.6569 5.56322 52 5.56322C48.6748 5.56322 43.2245 5.56322 39.0047 5.56322C34.5261 5.56322 30.1754 3.42529 28 2Z" fill-rule="nonzero" stroke="rgb(59,185,184)" stroke-width="2" />
</svg>
