<svg viewBox="0 0 10 13" xmlns="http://www.w3.org/2000/svg" xmlns:xlink="http://www.w3.org/1999/xlink" width="10.000000" height="13.000000" fill="none">
	<rect id="Frame" width="10.000000" height="13.000000" x="0.000000" y="0.000000" fill="rgb(255,255,255)" fill-opacity="0" />
	<path id="Subtract" d="M4.99789 0C7.76221 0 10 2.10476 10 4.70476C10 5.57143 9.73673 6.5 9.21019 7.24286L5.39279 12.8143C5.19534 13.0619 4.80044 13.0619 4.60299 12.8143L0.851403 7.36667L0.785586 7.30476C0.522317 6.93333 0.324865 6.5 0.193231 6.12857C-0.728211 2.90952 1.77284 0 4.99789 0ZM6.42855 4.84025C6.42855 5.5498 5.76921 6.15798 4.99998 6.15798C4.23075 6.15798 3.57141 5.65116 3.57141 4.84025C3.57141 4.02933 4.23075 3.42114 4.99998 3.42114C5.8791 3.42114 6.42855 4.13069 6.42855 4.84025Z" fill="rgb(255,214.2,0)" fill-rule="evenodd" />
</svg>
