<svg viewBox="0 0 33 28" xmlns="http://www.w3.org/2000/svg" xmlns:xlink="http://www.w3.org/1999/xlink" width="33.000000" height="28.000000" fill="none">
	<rect id="Frame" width="33.000000" height="28.000000" x="0.000000" y="0.000000" fill="rgb(255,255,255)" fill-opacity="0" />
	<path id="telegram 1" d="M30.8133 0.22658L1.23488 11.4555C-0.372861 11.9312 -0.331637 13.5235 0.863866 13.9164L8.26361 16.2325L11.1081 24.9592C11.4585 25.9105 11.7265 26.2827 12.3242 26.2827C12.9426 26.2827 13.1693 26.0552 13.8289 25.4969C14.5709 24.7938 15.7252 23.6771 17.5391 21.8987L25.248 27.6062C26.6702 28.392 27.6802 27.9784 28.0513 26.2827L32.8745 2.29453C33.3898 0.22658 32.1737 -0.393804 30.8133 0.22658ZM9.43851 15.6948L26.2786 5.08626C27.1031 4.52791 27.371 5.14829 27 5.58256L13.025 18.197L12.3036 24.5043L9.43851 15.6948Z" fill="rgb(42.8187,123.318,197.625)" fill-rule="nonzero" />
</svg>
