<svg viewBox="0 0 64 64" xmlns="http://www.w3.org/2000/svg" xmlns:xlink="http://www.w3.org/1999/xlink" width="64.000000" height="64.000000" fill="none">
	<rect id="Frame" width="64.000000" height="64.000000" x="0.000000" y="0.000000" fill="rgb(255,255,255)" fill-opacity="0" />
	<path id="Vector" d="M25.3733 52.639L25.3733 12.8757L34.8407 12.8757C40.8999 12.8757 46.2017 17.7988 46.2017 23.858C46.2017 29.9172 41.2786 35.2189 34.8407 35.2189L25.3733 35.2189" fill-rule="evenodd" stroke="rgb(59,185,184)" stroke-width="2" />
	<path id="Vector" d="M25.3728 35.219L18.9349 35.219" stroke="rgb(59,185,184)" stroke-width="2" />
	<path id="Vector" d="M44 42.0652L18.9346 42.0652" stroke="rgb(59,185,184)" stroke-width="2" />
	<path id="Vector" d="M31.8117 62.4853C15.149 62.4853 1.51587 48.8521 1.51587 32.1894C1.51587 15.5267 15.149 1.89355 31.8117 1.89355C48.8531 1.89355 62.1076 15.5267 62.1076 32.1894C62.1076 48.8521 48.4745 62.4853 31.8117 62.4853Z" fill-rule="evenodd" stroke="rgb(59,185,184)" stroke-width="2" />
</svg>
